<svg width="24" height="35" viewBox="0 0 24 35" fill="none" xmlns="http://www.w3.org/2000/svg">
<path d="M11.7079 11.877L19.338 13.2035L4.59071 29.1059L10.591 16.4926L10.7582 16.1412L10.3752 16.0746L3.45457 14.8715C3.34701 14.8528 3.2407 14.7145 3.30156 14.5433C3.30156 14.5433 3.30156 14.5433 3.30156 14.5433L7.9763 1.39739C8.04052 1.21678 8.16031 1.0681 8.31018 0.974583C8.45948 0.881414 8.62918 0.848518 8.78998 0.876476L15.0645 1.96729L11.4824 11.482L11.3566 11.816L11.7079 11.877Z" fill="#77FF00" stroke="black" stroke-width="0.593025"/>
<path d="M3.71186 31.5839L3.92747 31.7865L3.71185 31.5839C3.67309 31.625 3.64301 31.6316 3.62625 31.6325C3.6054 31.6336 3.57815 31.6269 3.55093 31.6061C3.52374 31.5854 3.50307 31.5553 3.49419 31.5214C3.48607 31.4903 3.48538 31.4472 3.51192 31.3914L3.51193 31.3914L3.75314 30.8842L16.6635 14.8519C17.3048 14.0554 16.9432 12.7828 15.9112 12.6034L11.6517 11.8627C11.6516 11.8627 11.6516 11.8627 11.6516 11.8627C11.5428 11.8438 11.4396 11.7972 11.3503 11.7257C11.261 11.654 11.1876 11.5587 11.1379 11.4461C11.0881 11.3334 11.0639 11.2073 11.0685 11.0783C11.0731 10.9493 11.1063 10.8226 11.1651 10.7089L15.6358 2.06947L16.7842 2.26916C16.9012 2.28949 17.0139 2.45462 16.9218 2.63267C16.9218 2.63268 16.9218 2.63269 16.9218 2.6327L12.5306 11.1185L12.3454 11.4765L12.7419 11.5454L20.7968 12.946C20.8708 12.9588 20.9311 13.013 20.9563 13.1028C20.9817 13.1933 20.9624 13.295 20.8916 13.3701L3.71186 31.5839ZM3.24399 31.2653L3.244 31.2653L3.24399 31.2653Z" fill="#CAFF9C" stroke="black" stroke-width="0.593025"/>
</svg>
