<svg width="48" height="46" viewBox="0 0 48 46" fill="none" xmlns="http://www.w3.org/2000/svg">
<rect x="0.5" y="0.5" width="47" height="45" rx="3.5" fill="url(#paint0_linear_1_7)" stroke="black"/>
<g clip-path="url(#clip0_1_7)">
<path d="M32.8487 28.4917C31.7379 27.395 30.3512 27.395 29.2475 28.4917C28.4055 29.3265 27.5636 30.1614 26.7358 31.0104C26.5094 31.2439 26.3184 31.2934 26.0425 31.1378C25.4977 30.8406 24.9175 30.6 24.394 30.2746C21.9531 28.7393 19.9084 26.7654 18.0971 24.5438C17.1986 23.4401 16.3991 22.2585 15.8402 20.9284C15.727 20.6596 15.7482 20.4827 15.9675 20.2634C16.8095 19.4497 17.6302 18.6149 18.458 17.78C19.6112 16.6197 19.6112 15.2613 18.4509 14.0939C17.7929 13.4288 17.1349 12.7779 16.4769 12.1129C15.7977 11.4337 15.1256 10.7474 14.4393 10.0752C13.3285 8.99276 11.9418 8.99276 10.8381 10.0823C9.9891 10.9172 9.17546 11.7733 8.3123 12.594C7.51282 13.351 7.10954 14.2778 7.02464 15.3603C6.89021 17.122 7.32179 18.7847 7.93025 20.4049C9.17546 23.7584 11.0716 26.7371 13.371 29.468C16.4769 33.1612 20.1843 36.0832 24.5213 38.1916C26.474 39.1397 28.4975 39.8684 30.6979 39.9887C32.2119 40.0736 33.5279 39.6915 34.5821 38.51C35.3037 37.7034 36.1174 36.9676 36.8815 36.1964C38.0135 35.0503 38.0206 33.6636 36.8956 32.5315C35.5514 31.1802 34.2 29.8359 32.8487 28.4917ZM31.4973 22.8528L34.108 22.4071C33.6977 20.0087 32.5657 17.8366 30.8464 16.1103C29.0281 14.292 26.7287 13.1458 24.1959 12.7921L23.828 15.4169C25.7878 15.6929 27.5707 16.5772 28.9786 17.9852C30.3087 19.3153 31.179 20.9992 31.4973 22.8528ZM35.5797 11.5044C32.5657 8.49043 28.7522 6.58723 24.5425 6L24.1746 8.62485C27.8112 9.13426 31.1082 10.7828 33.7118 13.3793C36.181 15.8485 37.8012 18.9686 38.3885 22.4L40.9992 21.9543C40.3129 17.9781 38.438 14.3698 35.5797 11.5044Z" fill="#333933"/>
</g>
<defs>
<linearGradient id="paint0_linear_1_7" x1="3.85714" y1="43.9283" x2="63.7801" y2="-18.6126" gradientUnits="userSpaceOnUse">
<stop stop-color="#77FF00"/>
<stop offset="1" stop-color="#FAFF0B"/>
</linearGradient>
<clipPath id="clip0_1_7">
<rect width="34" height="34" fill="white" transform="translate(7 6)"/>
</clipPath>
</defs>
</svg>
